#!OML:ASF E:\Mandelcareful walks\Project 1\Capture day 1\Session 1\Subject1.ASF
:FULLY-SPECIFIED
:DEGREES
865
root 11.4622 12.7311 0.513605 216.008 -74.3113 -197.754
lowerback 34.859 -1.16804 -0.399943
upperback 4.77522 -2.22717 0.548253
thorax -12.3671 -1.25124 1.77431
lowerneck -33.9684 3.8168 -1.4995
upperneck 9.4626 6.52713 -5.99323
head 8.39184 2.14502 -0.849638
rclavicle -1.11319e-014 1.8487e-014
rhumerus -13.7804 16.2093 -69.5352
rradius 79.902
rwrist -1.66849
rhand -1.56496 -22.8313
rfingers 7.12502
rthumb 24.0906 -51.339
lclavicle -1.11319e-014 1.8487e-014
lhumerus 5.17872 -67.3342 53.5447
lradius 79.1226
lwrist 7.44062
lhand -9.9858 -14.702
lfingers 7.12502
lthumb 15.9973 14.6575
rfemur -75.889 -28.2053 9.03508
rtibia 90.3004
rfoot -23.271 -7.05784
rtoes -13.8354
lfemur -74.0105 25.229 -15.9748
ltibia 91.0512
lfoot -25.1424 8.20131
ltoes -19.4243
866
root 11.444 12.8799 0.475805 215.262 -74.2439 -197.56
lowerback 35.1596 -1.24353 -0.364719
upperback 4.85927 -2.32068 0.608037
thorax -12.3835 -1.3016 1.86471
lowerneck -34.294 3.56451 -1.52834
upperneck 9.67781 6.18246 -5.76702
head 8.49336 1.99445 -0.820194
rclavicle -2.56432e-014 -2.3059e-014
rhumerus -13.9522 15.7449 -70.0241
rradius 77.9384
rwrist -2.29525
rhand -2.43829 -22.5977
rfingers 7.12502
rthumb 23.253 -51.2138
lclavicle -2.56432e-014 -2.3059e-014
lhumerus 2.50406 -67.5084 56.4891
lradius 77.9214
lwrist 7.57651
lhand -10.0626 -14.9341
lfingers 7.12502
lthumb 15.9233 14.4313
rfemur -74.0674 -27.8446 8.96236
rtibia 88.7911
rfoot -23.2346 -7.18512
rtoes -13.9035
lfemur -72 25.1269 -15.5446
ltibia 89.3243
lfoot -24.8022 8.36862
ltoes -18.7639
867
root 11.4204 13.0343 0.43407 213.976 -74.1837 -197.172
lowerback 36.039 -1.33391 -0.256912
upperback 4.80092 -2.41455 0.654691
thorax -12.6672 -1.35336 1.91887
lowerneck -34.3601 3.2531 -1.6212
upperneck 9.86038 5.76752 -5.462
head 8.54173 1.82802 -0.765868
rclavicle 8.34896e-015 -1.15295e-014
rhumerus -14.2722 15.416 -70.4657
rradius 76.0269
rwrist -3.18149
rhand -3.6129 -22.4883
rfingers 7.12502
rthumb 22.1256 -51.2423
lclavicle 8.34896e-015 -1.15295e-014
lhumerus -0.785855 -67.4369 60.0875
lradius 76.7576
lwrist 7.56038
lhand -10.2543 -14.9917
lfingers 7.12502
lthumb 15.7388 14.3883
rfemur -71.6332 -27.3627 8.72973
rtibia 87.158
rfoot -23.2936 -7.31173
rtoes -13.6133
lfemur -69.4208 25.063 -14.8954
ltibia 87.4896
lfoot -24.5264 8.3549
ltoes -18.5479
868
root 11.3976 13.1813 0.385203 212.956 -73.8657 -197.001
lowerback 36.7322 -1.25869 -0.364501
upperback 4.80069 -2.3814 0.682074
thorax -12.9253 -1.33897 2.01269
lowerneck -34.2372 2.67583 -2.18672
upperneck 9.93205 5.12494 -4.81059
head 8.4971 1.58509 -0.555395
rclavicle -5.22804e-014 4.8901e-014
rhumerus -14.864 14.9703 -70.7179
rradius 74.4907
rwrist -4.07807
rhand -4.37742 -22.3743
rfingers 7.12502
rthumb 21.3915 -51.2135
lclavicle -5.22804e-014 4.8901e-014
lhumerus -3.60301 -67.397 63.2114
lradius 75.8258
lwrist 7.4894
lhand -10.7936 -14.7669
lfingers 7.12502
lthumb 15.2193 14.6533
rfemur -69.3815 -26.7015 8.37394
rtibia 85.5942
rfoot -23.3704 -7.23999
rtoes -12.399
lfemur -66.861 25.15 -14.3627
ltibia 85.6228
lfoot -24.4622 7.87815
ltoes -18.3743
869
root 11.3867 13.3293 0.334041 211.692 -73.4836 -196.479
lowerback 37.3242 -1.1216 -0.564808
upperback 4.86761 -2.31144 0.734246
thorax -13.062 -1.309 2.1614
lowerneck -34.2896 2.08449 -2.71987
upperneck 9.98302 4.44114 -4.11715
head 8.47672 1.3247 -0.340545
rclavicle -1.31198e-014 4.63168e-014
rhumerus -15.1595 14.4158 -71.0275
rradius 73.0983
rwrist -4.74925
rhand -4.76557 -22.3314
rfingers 7.12502
rthumb 21.0186 -51.2124
lclavicle -1.31198e-014 4.63168e-014
lhumerus -6.01125 -67.0369 65.9512
lradius 75.0206
lwrist 7.24826
lhand -10.8056 -14.3052
lfingers 7.12502
lthumb 15.2077 15.1159
rfemur -67.4914 -25.9668 8.27622
rtibia 84.1287
rfoot -23.3545 -7.16931
rtoes -11.0627
lfemur -64.4811 25.3657 -13.7838
ltibia 83.73
lfoot -24.4638 7.03662
ltoes -18.1492
870
root 11.3916 13.4684 0.285619 210.289 -73.358 -195.405
lowerback 38.041 -1.13026 -0.692297
upperback 4.50594 -2.32759 0.940685
thorax -13.7334 -1.28633 2.49162
lowerneck -34.4133 1.6049 -3.11862
upperneck 10.3945 3.88934 -3.44494
head 8.60747 1.1236 -0.128854
rclavicle 3.33958e-014 -3.67752e-014
rhumerus -15.6619 14.2275 -71.4465
rradius 71.7048
rwrist -5.367
rhand -5.01319 -22.1191
rfingers 7.12502
rthumb 20.7807 -51.0263
lclavicle 3.33958e-014 -3.67752e-014
lhumerus -9.87868 -66.2908 70.0941
lradius 74.2829
lwrist 6.87595
lhand -10.0261 -13.6852
lfingers 7.12502
lthumb 15.9586 15.6773
rfemur -66.3389 -25.3354 8.71612
rtibia 82.753
rfoot -23.0476 -7.44351
rtoes -10.7078
lfemur -62.8964 25.5096 -13.2086
ltibia 81.8916
lfoot -23.6918 7.28959
ltoes -18.1333
871
root 11.3711 13.6045 0.243369 209.925 -73.2518 -195.503
lowerback 37.9359 -1.2655 -0.63961
upperback 4.6696 -2.4971 0.924547
thorax -13.5 -1.37665 2.51244
lowerneck -34.5874 0.884883 -3.73538
upperneck 10.5142 3.04123 -2.54983
head 8.63163 0.806628 0.136723
rclavicle 1.2921e-014 -8.26944e-014
rhumerus -15.5901 13.5335 -71.915
rradius 70.1871
rwrist -5.82894
rhand -5.41891 -21.7516
rfingers 7.12502
rthumb 20.3909 -50.7011
lclavicle 1.2921e-014 -8.26944e-014
lhumerus -11.481 -65.4592 72.0194
lradius 73.5809
lwrist 6.69016
lhand -9.0693 -13.3787
lfingers 7.12502
lthumb 16.8797 15.9077
rfemur -64.828 -25.0643 8.6093
rtibia 81.3481
rfoot -22.7899 -7.3924
rtoes -10.646
lfemur -61.0967 25.3887 -12.9763
ltibia 80.0785
lfoot -22.7884 8.36794
ltoes -18.3783
872
root 11.3508 13.7299 0.198914 209.316 -73.1014 -195.309
lowerback 38.0144 -1.35976 -0.660448
upperback 4.61965 -2.61342 0.996746
thorax -13.5788 -1.42417 2.65717
lowerneck -34.2012 0.153981 -4.51372
upperneck 10.4035 2.21027 -1.61274
head 8.51637 0.507882 0.455429
rclavicle 7.7526e-015 7.7526e-015
rhumerus -15.9969 13.0858 -72.2811
rradius 68.9625
rwrist -6.52364
rhand -6.00153 -21.4944
rfingers 7.12502
rthumb 19.8309 -50.5027
lclavicle 7.7526e-015 7.7526e-015
lhumerus -13.6013 -64.2175 74.5742
lradius 72.7862
lwrist 6.04391
lhand -8.21797 -13.5416
lfingers 7.12502
lthumb 17.6991 15.6729
rfemur -63.2734 -24.6232 8.52932
rtibia 79.9398
rfoot -22.6655 -7.27677
rtoes -10.1468
lfemur -59.3652 25.4097 -12.6656
ltibia 78.3118
lfoot -22.2369 8.71118
ltoes -19.08
873
root 11.3287 13.858 0.153658 208.844 -72.9463 -195.275
lowerback 38.0787 -1.43855 -0.674172
upperback 4.61304 -2.72055 1.01091
thorax -13.6045 -1.47167 2.7292
lowerneck -33.7863 -0.51639 -5.0934
upperneck 10.1572 1.37985 -0.779934
head 8.36732 0.204087 0.707397
rclavicle 4.23411e-014 9.34288e-015
rhumerus -16.4192 12.7814 -72.6049
rradius 68.0033
rwrist -7.96666
rhand -6.75288 -22.5579
rfingers 7.12502
rthumb 19.1085 -51.6393
lclavicle 4.23411e-014 9.34288e-015
lhumerus -15.1378 -62.9301 76.5733
lradius 71.8974
lwrist 5.61715
lhand -8.24992 -14.0283
lfingers 7.12502
lthumb 17.6684 15.1889
rfemur -61.6248 -24.2086 8.42274
rtibia 78.4414
rfoot -22.5734 -7.26515
rtoes -9.66241
lfemur -57.614 25.3626 -12.3667
ltibia 76.5317
lfoot -21.9602 8.44965
ltoes -20.104
874
root 11.3114 13.9805 0.106569 207.981 -72.7661 -194.83
lowerback 38.149 -1.48696 -0.620799
upperback 4.6763 -2.7804 0.963749
thorax -13.5578 -1.50778 2.67639
lowerneck -33.7727 -1.14089 -5.32379
upperneck 10.1776 0.524021 -0.111587
head 8.38474 -0.12606 0.845055
rclavicle -4.55217e-014 1.17283e-014
rhumerus -16.6414 12.5359 -73.0676
rradius 66.9174
rwrist -9.86484
rhand -7.87752 -24.1453
rfingers 7.12502
rthumb 18.0267 -53.3299
lclavicle -4.55217e-014 1.17283e-014
lhumerus -16.0981 -61.8127 77.8354
lradius 71.0784
lwrist 6.18078
lhand -9.19823 -14.5468
lfingers 7.12502
lthumb 16.7556 14.7501
rfemur -60.0887 -23.6529 8.4934
rtibia 76.9175
rfoot -22.3387 -7.47404
rtoes -9.36109
lfemur -55.8316 25.4197 -11.9237
ltibia 74.7875
lfoot -21.5812 8.22872
ltoes -20.2532
875
root 11.2928 14.0957 0.0612799 206.961 -72.6353 -194.13
lowerback 38.126 -1.5823 -0.440989
upperback 4.67165 -2.83115 0.954831
thorax -13.5597 -1.53948 2.59393
lowerneck -33.6918 -1.69831 -5.54107
upperneck 10.2156 -0.230992 0.453589
head 8.40513 -0.420561 0.960044
rclavicle -3.8763e-014 5.96354e-015
rhumerus -16.8183 12.1585 -73.3819
rradius 65.4073
rwrist -11.1896
rhand -9.13031 -24.5205
rfingers 7.12502
rthumb 16.821 -53.8119
lclavicle -3.8763e-014 5.96354e-015
lhumerus -17.0805 -60.5045 79.2143
lradius 70.214
lwrist 6.92054
lhand -10.0506 -14.7051
lfingers 7.12502
lthumb 15.9349 14.6594
rfemur -58.7217 -23.1186 8.67103
rtibia 75.4833
rfoot -22.0991 -7.73978
rtoes -9.03106
lfemur -54.1722 25.5281 -11.4381
ltibia 73.093
lfoot -21.0538 8.31524
ltoes -19.9193
876
root 11.2721 14.2103 0.0163196 206.599 -72.4273 -194.001
lowerback 37.9296 -1.65117 -0.303057
upperback 4.55129 -2.8519 0.913123
thorax -13.6347 -1.54684 2.48251
lowerneck -33.3935 -2.36088 -6.00429
upperneck 10.2682 -1.03805 1.06388
head 8.41043 -0.743714 1.12124
rclavicle 3.61788e-014 -5.10877e-014
rhumerus -17.13 11.3819 -73.4688
rradius 63.7715
rwrist -11.6219
rhand -9.72354 -23.8765
rfingers 7.12502
rthumb 16.2499 -53.2155
lclavicle 3.61788e-014 -5.10877e-014
lhumerus -18.1 -59.1431 80.7791
lradius 69.2632
lwrist 7.39881
lhand -10.3869 -14.7
lfingers 7.12502
lthumb 15.611 14.69
rfemur -57.4377 -22.5839 8.56289
rtibia 74.0363
rfoot -21.9566 -7.74903
rtoes -7.64393
lfemur -52.7092 25.5797 -11.2328
ltibia 71.4106
lfoot -20.4741 8.64058
ltoes -20.2355
877
root 11.2536 14.319 -0.0282359 206.457 -72.2237 -194.157
lowerback 37.8537 -1.77175 -0.530898
upperback 4.58258 -3.10001 0.915619
thorax -13.5525 -1.64922 2.7096
lowerneck -33.783 -2.7346 -6.10576
upperneck 10.4645 -1.55521 1.53893
head 8.55665 -0.936128 1.22159
rclavicle -4.19436e-014 -2.38542e-015
rhumerus -16.9469 11.3497 -73.8709
rradius 62.559
rwrist -12.9869
rhand -10.4711 -23.7635
rfingers 7.12502
rthumb 15.53 -53.1598
lclavicle -4.19436e-014 -2.38542e-015
lhumerus -18.4614 -57.0022 81.4978
lradius 68.3651
lwrist 7.6924
lhand -10.4202 -14.7052
lfingers 7.12502
lthumb 15.5789 14.6873
rfemur -56.2275 -22.3497 8.64454
rtibia 72.869
rfoot -21.7586 -8.16929
rtoes -9.15775
lfemur -51.1913 25.4932 -11.0902
ltibia 69.7273
lfoot -19.9856 8.94361
ltoes -20.7014
878
root 11.234 14.4224 -0.0719805 206.06 -72.1536 -194.091
lowerback 37.7644 -1.94206 -0.555358
upperback 4.62245 -3.32169 0.964196
thorax -13.461 -1.74965 2.86679
lowerneck -33.4086 -3.06921 -6.55686
upperneck 10.1086 -1.96852 2.22415
head 8.40504 -1.06585 1.47001
rclavicle -6.32135e-014 8.54774e-015
rhumerus -16.8883 11.0111 -74.1306
rradius 61.4353
rwrist -13.6987
rhand -9.99151 -23.7951
rfingers 7.12502
rthumb 15.9918 -53.1551
lclavicle -6.32135e-014 8.54774e-015
lhumerus -18.8208 -54.8276 82.2616
lradius 67.5589
lwrist 8.07574
lhand -10.9315 -14.7014
lfingers 7.12502
lthumb 15.0865 14.7289
rfemur -54.8623 -22.0485 8.64969
rtibia 71.5745
rfoot -21.5634 -8.23943
rtoes -8.89428
lfemur -49.6205 25.2687 -10.79
ltibia 68.0373
lfoot -19.5346 9.13212
ltoes -20.7503
879
root 11.2154 14.5281 -0.116033 205.677 -72.1103 -193.903
lowerback 37.5186 -2.11867 -0.359221
upperback 4.63189 -3.46584 0.936611
thorax -13.3642 -1.82348 2.78583
lowerneck -32.752 -3.41408 -7.09584
upperneck 9.5845 -2.39263 2.99082
head 8.16399 -1.19681 1.75982
rclavicle -5.78463e-014 9.74045e-015
rhumerus -16.9827 10.3423 -74.3749
rradius 60.4002
rwrist -13.9418
rhand -10.1016 -24.1401
rfingers 7.12502
rthumb 15.8858 -53.5085
lclavicle -5.78463e-014 9.74045e-015
lhumerus -18.8808 -52.9229 82.7864
lradius 66.596
lwrist 8.43997
lhand -11.8574 -14.8565
lfingers 7.12502
lthumb 14.1944 14.6385
rfemur -53.6763 -21.6836 8.72833
rtibia 70.245
rfoot -21.3376 -8.40546
rtoes -8.55359
lfemur -48.2383 25.0118 -10.4672
ltibia 66.3299
lfoot -18.9925 9.37085
ltoes -20.4067
